<?xml version="1.0" encoding="UTF-8"?>
<svg width="32" height="32" viewBox="0 0 32 32" fill="none" xmlns="http://www.w3.org/2000/svg">
  <circle cx="16" cy="16" r="16" fill="#4F46E5"/>
  <path d="M16 8C17.5196 8 19.0121 8.35189 20.3615 9.03139C21.7109 9.71088 22.8772 10.6991 23.7678 11.9048C24.6584 13.1106 25.245 14.4993 25.4831 15.9666C25.7212 17.4339 25.6033 18.9345 25.1396 20.3451C24.676 21.7556 23.8797 23.0331 22.8151 24.0705C21.7504 25.1079 20.4524 25.8726 19.027 26.3012C17.6017 26.7299 16.0931 26.8101 14.6251 26.5353C13.1571 26.2605 11.7752 25.6391 10.5824 24.7197" stroke="white" stroke-width="2" stroke-linecap="round"/>
  <path d="M16 12C16.7956 12 17.5587 12.2346 18.2222 12.6741C18.8858 13.1136 19.4217 13.7384 19.7746 14.4693C20.1275 15.2002 20.2843 16.0044 20.2308 16.8087C20.1773 17.6131 19.9155 18.3928 19.4749 19.0718C19.0343 19.7508 18.4324 20.3061 17.7268 20.6864C17.0213 21.0667 16.2375 21.2597 15.4382 21.2484C14.6388 21.2372 13.8619 21.022 13.1696 20.6214C12.4772 20.2209 11.8947 19.6485 11.4773 18.9569" stroke="white" stroke-width="2" stroke-linecap="round"/>
  <circle cx="16" cy="16" r="2" fill="white"/>
</svg>
